<?xml version="1.0" encoding="UTF-8"?>
<svg id="Layer_1" data-name="Layer 1" xmlns="http://www.w3.org/2000/svg" xmlns:xlink="http://www.w3.org/1999/xlink" viewBox="0 0 1229.23 333.88">
  <defs>
    <style>
      .cls-1 {
        fill: url(#linear-gradient-8);
      }

      .cls-2 {
        fill: url(#linear-gradient-7);
      }

      .cls-3 {
        fill: url(#linear-gradient-5);
      }

      .cls-4 {
        fill: url(#linear-gradient-6);
      }

      .cls-5 {
        fill: url(#linear-gradient-9);
      }

      .cls-6 {
        fill: url(#linear-gradient-4);
      }

      .cls-7 {
        fill: url(#linear-gradient-3);
      }

      .cls-8 {
        fill: url(#linear-gradient-2);
      }

      .cls-9 {
        fill: url(#linear-gradient);
      }

      .cls-10 {
        fill: url(#linear-gradient-10);
      }

      .cls-11 {
        fill: url(#linear-gradient-11);
      }

      .cls-12 {
        fill: #999;
      }
    </style>
    <linearGradient id="linear-gradient" x1="48.36" y1="97.7" x2="265.92" y2="97.7" gradientUnits="userSpaceOnUse">
      <stop offset="0" stop-color="#fff"/>
      <stop offset=".52" stop-color="#fcfcfc"/>
      <stop offset=".79" stop-color="#f4f4f4"/>
      <stop offset="1" stop-color="#e8e8e8"/>
    </linearGradient>
    <linearGradient id="linear-gradient-2" x1="67.89" y1="267.47" x2="281.45" y2="267.47" xlink:href="#linear-gradient"/>
    <linearGradient id="linear-gradient-3" x1="0" y1="176.83" x2="188.38" y2="176.83" xlink:href="#linear-gradient"/>
    <linearGradient id="linear-gradient-4" x1="137.93" y1="90.33" x2="283.33" y2="90.33" xlink:href="#linear-gradient"/>
    <linearGradient id="linear-gradient-5" x1="361.1" y1="166.94" x2="534.42" y2="166.94" xlink:href="#linear-gradient"/>
    <linearGradient id="linear-gradient-6" x1="718.87" y1="166.94" x2="838.86" y2="166.94" xlink:href="#linear-gradient"/>
    <linearGradient id="linear-gradient-7" x1="1031.55" y1="166.95" x2="1168.72" y2="166.95" xlink:href="#linear-gradient"/>
    <linearGradient id="linear-gradient-8" x1="1186.9" y1="196.06" x2="1225.61" y2="196.06" xlink:href="#linear-gradient"/>
    <linearGradient id="linear-gradient-9" x1="532.32" y1="166.93" x2="705.4" y2="166.93" xlink:href="#linear-gradient"/>
    <linearGradient id="linear-gradient-10" x1="846.43" y1="166.94" x2="1019.51" y2="166.94" xlink:href="#linear-gradient"/>
    <linearGradient id="linear-gradient-11" x1="1183.28" y1="97.9" x2="1229.23" y2="97.9" xlink:href="#linear-gradient"/>
  </defs>
  <g>
    <g>
      <path class="cls-12" d="M250.62,19.45c-.48.02-.97.03-1.47.08-.85.07-1.72.15-2.59.27-.38.05-.75.1-1.13.17h-.03c-.47.08-.92.15-1.39.25-.47.08-.95.18-1.42.28-.4.08-.78.17-1.17.27-.4.08-.82.18-1.22.3-2.84.73-5.77,1.72-8.81,2.95-.45.18-.92.37-1.39.57-.7.3-1.4.62-2.1.93-.58.27-1.18.55-1.77.83-1.18.57-2.39,1.17-3.59,1.82-1.22.63-2.44,1.3-3.65,2.02-.62.35-1.23.7-1.85,1.08-.62.37-1.23.75-1.85,1.13-.62.38-1.23.77-1.87,1.19-.62.4-1.25.82-1.89,1.23-1.89,1.27-3.79,2.6-5.71,4.02-.63.47-1.27.95-1.9,1.44,0,0,0,0-.01,0-.54.4-.39,1.24.25,1.43.62.19,1.26.39,1.75.54.95.3,1.9.6,2.84.92.9.3,1.79.6,2.69.93,2.12.77,4.22,1.59,6.29,2.47.67.28,1.33.57,2,.87.58.25,1.15.5,1.72.77.58.28,1.17.55,1.75.83,2.22,1.03,4.4,2.17,6.56,3.37.73.38,1.44.8,2.15,1.2,2.14,1.22,4.25,2.52,6.32,3.87,2.65,1.72,5.22,3.54,7.73,5.44.62.45,1.22.92,1.82,1.4.7.55,1.4,1.1,2.08,1.67.58.48,1.19.97,1.75,1.47.23.18.47.38.68.57.5.43.98.87,1.45,1.28.6.52,1.18,1.05,1.75,1.6.05.02.08.05.12.08.62.57,1.22,1.13,1.82,1.72.65.62,1.29,1.23,1.9,1.87.65.65,1.3,1.32,1.94,1.99.43.43.85.87,1.25,1.32.6.63,1.18,1.29,1.77,1.94,2.09,2.32,4.09,4.72,5.99,7.21.65.83,1.27,1.67,1.89,2.52.24.32.57.77.88,1.21.39.55,1.25.41,1.44-.24,4.47-14.82,6.39-28.42,5.59-39.81-.18-2.52-.5-4.92-.93-7.14v-.02c-1.8-9.09-5.69-15.77-11.55-19.79-4.27-2.94-9.51-4.37-15.45-4.37-.47,0-.95.02-1.44.03"/>
      <path class="cls-12" d="M40.31,130.04c.4.53,1.24.38,1.43-.26.18-.6.37-1.24.5-1.64.12-.38.23-.75.37-1.13.28-.95.6-1.89.93-2.82.45-1.32.92-2.62,1.44-3.92.27-.68.53-1.39.82-2.07.27-.7.55-1.39.85-2.07.1-.27.22-.55.35-.82.3-.73.62-1.45.95-2.17.07-.18.15-.37.25-.55.5-1.12,1.02-2.22,1.57-3.3.57-1.18,1.17-2.35,1.79-3.5.65-1.23,1.33-2.45,2.02-3.67.62-1.07,1.23-2.12,1.89-3.17.58-.98,1.2-1.95,1.84-2.9.78-1.22,1.58-2.44,2.44-3.65.57-.82,1.15-1.63,1.75-2.44.22-.3.43-.62.67-.93.77-1.02,1.54-2.04,2.34-3.04,1.63-2.07,3.34-4.1,5.11-6.07.88-1,1.79-1.97,2.7-2.94l.18-.18c.62-.63,1.28-1.3,1.95-1.97l.2-.2c.72-.72,1.45-1.47,2.19-2.17,1.33-1.32,2.69-2.64,4.04-3.92,1.35-1.3,2.72-2.59,4.1-3.87,1.37-1.28,2.75-2.55,4.15-3.8.15-.14.29-.27.44-.4.47-.43.29-1.21-.32-1.38-12.14-3.55-23.5-5.37-33.37-5.37-4.4,0-8.49.35-12.21,1.08-9.14,1.82-15.82,5.71-19.86,11.56-9.01,13.08-3.75,35.67,14.08,60.42.78,1.09,1.6,2.18,2.44,3.28"/>
      <path class="cls-12" d="M126.75,295.97c1.09-.79,2.17-1.6,3.27-2.43.53-.41.38-1.24-.27-1.43-2.07-.61-3.44-1.08-4.1-1.31-1.24-.4-2.45-.82-3.67-1.27-.9-.33-1.8-.68-2.69-1.03-.83-.32-1.67-.65-2.5-1-.93-.38-1.87-.78-2.8-1.2-.88-.38-1.77-.78-2.64-1.2-.97-.45-1.92-.92-2.85-1.39-.87-.43-1.72-.88-2.57-1.33-.85-.45-1.7-.92-2.54-1.38-.87-.48-1.74-.98-2.59-1.49-.75-.45-1.5-.9-2.25-1.37-.97-.58-1.92-1.18-2.85-1.8-6.59-4.29-12.85-9.23-18.6-14.65-.82-.8-1.62-1.6-2.4-2.39-.88-.88-1.72-1.72-2.52-2.54-4.07-4.15-7.98-8.32-11.73-12.47-.43-.47-1.21-.29-1.39.32-4.19,14.32-6,27.49-5.21,38.49.15,2,.74,6.83,1.7,10.43.9,3.29,2.1,6.21,3.62,8.74.18.32.38.63.57.93.03.05.07.1.1.13.23.37.48.72.75,1.07,1.62,2.25,3.54,4.12,5.74,5.64,13.08,9.01,35.67,3.75,60.42-14.08"/>
    </g>
    <path class="cls-9" d="M82.61,78.43c-.7.68-1.4,1.39-2.1,2.07l-.18.2c-.63.63-1.28,1.28-1.92,1.93l-.15.15c-.85.9-1.7,1.82-2.54,2.75-.28.33-.58.67-.87,1-.72.82-1.43,1.64-2.12,2.49-.03.02-.05.05-.07.1-.9,1.07-1.77,2.14-2.6,3.24-.85,1.1-1.69,2.24-2.5,3.37-.7.98-1.4,1.97-2.09,2.99-.33.52-.68,1.03-1.02,1.57-.53.8-1.03,1.59-1.54,2.4-.63,1-1.23,2.02-1.82,3.05-.18.3-.37.6-.53.92-.43.75-.85,1.5-1.25,2.27-.1.17-.2.35-.28.53-.42.77-.82,1.54-1.22,2.32-.98,1.95-1.92,3.92-2.8,5.91-.43,1.03-.88,2.07-1.3,3.1-.07.17-.13.33-.2.5-.43,1.08-.87,2.2-1.27,3.3-.43,1.18-.85,2.37-1.25,3.57-.37,1.08-.72,2.19-1.05,3.29-.2.65-.38,1.3-.57,1.95-.18.65-.35,1.3-.53,1.95-.11.39-.21.79-.31,1.18-.45,1.74.02,3.58,1.21,4.91.39.44.8.88,1.2,1.32.75.83,1.54,1.67,2.32,2.5,1.57,1.67,3.17,3.32,4.82,4.96.83.83,1.67,1.65,2.52,2.47.83.82,1.7,1.62,2.57,2.44,2.59,2.44,5.27,4.84,8.03,7.21,1.22,1.05,2.47,2.09,3.72,3.12,1.55,1.29,3.15,2.57,4.77,3.84.92.73,1.85,1.45,2.8,2.19,1.99,1.52,4,3.02,6.06,4.49,1.33.97,2.67,1.92,4.04,2.85l.75.53c7.07,4.86,14.45,9.44,21.89,13.56,1.45.8,2.91,1.59,4.37,2.35.94.49,1.93-.55,1.39-1.46-4.69-8-7.33-17.24-7.31-26.9,0-5.34.77-10.54,2.29-15.52.08-.27.17-.53.27-.8.2-.68.43-1.35.67-2,.27-.8.55-1.6.83-2.4.88-2.54,1.82-5.04,2.79-7.47,1.27-3.19,2.62-6.36,4-9.41l.32-.7c6.16-13.55,13.82-27.01,22.79-40.03l.52-.75c.97-1.39,1.95-2.77,2.94-4.14,10.16-14.13,21.59-27.15,33.37-37.99l6.22-5.54,1.57-1.33h.02c12.08-10.06,23.88-17.47,34.87-22.11,1.29-.53,2.54-1.03,3.79-1.5,7.53-2.75,14.63-4.17,21.14-4.17.7,0,1.4.02,2.1.05.03,0,.05.02.07,0,.65.03,1.3.08,1.94.15.78.08,1.57.18,2.34.3.62.08,1.22.2,1.82.33.67.13,1.32.28,1.95.47.57.15,1.13.32,1.68.5.2.07.4.13.6.2.12.04.29.11.52.2.63.24,1.13-.55.65-1.02h0c-28.98-27.68-99.09-7-163.82,48.49l-.3.25c-.93.8-1.87,1.62-2.8,2.44-5.51,4.81-10.91,9.83-16.05,14.9l-.13.13Z"/>
    <path class="cls-8" d="M278.73,201.05h-64.09c-2.29,0-4.37,1.34-5.32,3.43,0,.01-.01.03-.02.04l-.35.78c-1.6,3.54-3.34,7.11-5.19,10.66l.15-.02-3.7,6.69c-4.25,7.68-8.96,15.27-14.02,22.62-.8,1.17-1.62,2.32-2.44,3.47-1.65,2.34-3.35,4.64-5.06,6.89-.83,1.08-1.67,2.15-2.5,3.22-1.87,2.39-3.77,4.72-5.69,7.02-.87,1.03-1.73,2.05-2.6,3.05-.93,1.08-1.87,2.17-2.84,3.22-.65.73-1.3,1.45-1.97,2.17-.53.6-1.07,1.18-1.62,1.75-.78.85-1.59,1.7-2.39,2.52-1.5,1.59-3.02,3.14-4.57,4.64-1.72,1.69-3.44,3.34-5.16,4.92l-6.22,5.54c-.53.45-1.05.88-1.58,1.32-3.32,2.77-6.64,5.36-9.93,7.73-1.72,1.23-3.44,2.42-5.14,3.55-2.27,1.5-4.52,2.9-6.74,4.2-1.67.98-3.32,1.9-4.96,2.75h-.02c-1.08.58-2.19,1.12-3.25,1.65-1.08.52-2.15,1.02-3.22,1.48s-2.12.92-3.17,1.33c-1.05.42-2.09.82-3.12,1.18-7.24,2.57-14.07,3.87-20.32,3.87-.7,0-1.4-.02-2.1-.05h-.07c-.62-.03-1.22-.08-1.84-.13-.82-.08-1.62-.18-2.4-.32-.62-.08-1.24-.2-1.84-.33-.55-.12-1.12-.23-1.65-.38-.17-.03-.35-.08-.52-.13-.34-.09-1.29-.33-2.56-.79-.63-.23-1.12.56-.64,1.02,1.17,1.11,2.23,1.96,3.05,2.6,8.13,6.32,18.95,9.64,31.62,9.64,32.85,0,68.73-12.93,100.98-36.42,31.81-23.15,58.41-54.98,77.42-92.45.92-1.81-.39-3.95-2.42-3.95"/>
    <path class="cls-7" d="M60.96,232.24c.8.93,1.62,1.87,2.44,2.8,4.59,5.24,9.54,10.6,14.75,15.88.78.82,1.59,1.62,2.37,2.4.83.83,1.6,1.58,2.35,2.34,5.34,5.04,11.21,9.66,17.39,13.68,3,1.97,6.07,3.79,9.21,5.46.78.42,1.57.83,2.37,1.23.78.4,1.58.78,2.39,1.17,1.65.8,3.32,1.55,5.01,2.27.53.23,1.08.45,1.62.67,1.05.43,2.1.85,3.15,1.23.83.32,1.67.62,2.5.9.83.3,1.67.58,2.52.85,2.92.95,5.87,1.79,8.87,2.52.87.21,1.79-.01,2.46-.61,1.16-1.04,2.92-2.61,3.41-3.06.75-.68,1.48-1.39,2.24-2.1.72-.67,1.42-1.37,2.14-2.05.05-.05.08-.08.13-.13,1.05-1.03,2.12-2.1,3.17-3.17.03-.05.08-.1.13-.15.82-.82,1.62-1.65,2.42-2.5.08-.07.15-.15.22-.22.85-.92,1.72-1.84,2.57-2.77.88-.95,1.77-1.94,2.64-2.92.78-.87,1.55-1.75,2.34-2.65.97-1.12,1.92-2.24,2.85-3.37.8-.95,1.6-1.92,2.39-2.9.9-1.12,1.82-2.25,2.69-3.39.62-.77,1.22-1.54,1.8-2.32.83-1.07,1.65-2.15,2.45-3.25.48-.65.97-1.3,1.43-1.95.53-.73,1.07-1.48,1.6-2.24.8-1.12,1.59-2.24,2.35-3.35.62-.88,1.22-1.79,1.82-2.69.47-.68.92-1.37,1.37-2.05.73-1.12,1.47-2.23,2.19-3.37.75-1.17,1.49-2.35,2.2-3.54l1.29-2.07c.51-.83-.05-1.91-1.02-1.95-.92-.04-1.86-.1-2.8-.18-1.03-.07-3.15-.28-3.15-.28-1.2-.12-2.4-.25-3.6-.42-8.26-1.12-17.08-3.17-26.26-6.12-.87-.28-1.75-.57-2.64-.88-.02,0-.05-.02-.07-.03-1.47-.5-2.95-1.02-4.44-1.55-1.62-.58-3.22-1.2-4.84-1.84-.77-.3-1.55-.62-2.34-.93-1.55-.63-3.12-1.28-4.67-1.95-1.82-.78-3.65-1.6-5.47-2.45-1.1-.52-2.19-1.03-3.27-1.55-1-.48-2-.99-3-1.49-3.15-1.57-6.27-3.22-9.41-4.96-7.68-4.25-15.28-8.98-22.62-14.02l-.75-.53c-1.39-.95-2.77-1.94-4.14-2.92-1.77-1.27-3.52-2.55-5.24-3.87-.8-.6-1.59-1.22-2.39-1.82-.92-.72-1.84-1.42-2.74-2.15-.98-.77-1.95-1.55-2.9-2.34-.52-.42-1.02-.83-1.52-1.25-1.02-.85-2.04-1.7-3.04-2.57-.73-.62-1.47-1.25-2.19-1.9-.45-.38-.9-.77-1.33-1.17-1.42-1.25-2.8-2.5-4.15-3.79-3.22-2.97-6.32-6.01-9.26-9.08-.58-.6-1.17-1.22-1.74-1.82-.52-.53-1.02-1.08-1.5-1.62l-.05.23-3.65-4.32c-.62-.72-1.23-1.42-1.84-2.14-.15-.17-.28-.35-.43-.52l-.9-1.05v-.03c-2.75-3.32-5.36-6.66-7.71-9.93-1.23-1.72-2.42-3.44-3.55-5.14-1.5-2.27-2.9-4.5-4.21-6.74-.98-1.67-1.9-3.32-2.75-4.96-1.15-2.19-2.2-4.34-3.14-6.47-.47-1.07-.92-2.12-1.33-3.17-.42-1.05-.82-2.09-1.18-3.12-.37-1.03-.72-2.07-1.02-3.09-.32-1-.6-2-.87-3-1.32-5-1.99-9.76-1.99-14.23,0-.72.02-1.42.05-2.12.03-.7.08-1.4.15-2.09.07-.65.15-1.28.25-1.9,0-.08.02-.17.03-.23.07-.5.15-.98.27-1.47.03-.25.08-.5.13-.75.12-.53.25-1.05.4-1.59,0-.02,0-.05.02-.07.15-.62.33-1.22.53-1.82t.02-.03c.07-.2.15-.49.3-.89.22-.63-.57-1.11-1.03-.63-.23.25-.41.45-.54.59-17.02,18.63-15.33,54.47,4.67,96.42,9.91,20.84,24.11,42.51,41.16,63.02l3.47,4.09Z"/>
    <path class="cls-6" d="M283.2,129.25c-2.88-8.9-6.78-17.44-11.66-25.49-.72-1.2-1.45-2.34-2.2-3.47-9.34-14.4-21.37-26.43-35.76-35.81-4.84-3.15-9.84-5.94-15.02-8.34-.72-.33-1.45-.68-2.2-1-.83-.38-1.7-.75-2.55-1.1-.85-.35-1.72-.7-2.59-1.03-.83-.33-1.69-.65-2.54-.95-.07-.03-.12-.07-.18-.07-.83-.32-1.67-.6-2.52-.88-.72-.25-1.43-.48-2.17-.7-.73-.25-1.49-.48-2.24-.7-.53-.15-1.08-.32-1.64-.47-.75-.22-1.5-.42-2.25-.6-.8-.22-1.62-.42-2.44-.6-.25-.07-.48-.12-.73-.17-.32.27-.63.55-.95.83-1.67,1.47-3.35,3-5.01,4.57-.83.78-1.67,1.57-2.49,2.39-.72.68-1.44,1.4-2.15,2.1-1.79,1.77-3.55,3.6-5.31,5.49-.78.83-1.57,1.69-2.35,2.55-.8.88-1.6,1.78-2.4,2.69-.58.65-1.17,1.33-1.75,2-3.37,3.9-6.67,7.96-9.84,12.13-.75.97-1.5,1.95-2.24,2.95-.73,1-1.47,1.99-2.19,2.99-.95,1.34-1.9,2.67-2.84,4.04l-.52.73c-.97,1.42-1.94,2.84-2.87,4.25-.45.68-.9,1.37-1.33,2.05-.8,1.22-1.58,2.45-2.35,3.69-.95,1.52-1.89,3.05-2.8,4.59-.93,1.55-1.84,3.12-2.72,4.67-1.53,2.68-2.99,5.36-4.4,8.05-.33.63.38,1.29.99.91,8.3-5.14,17.87-7.88,27.87-7.88h.08c15.07,0,29.1,6.22,39.16,17.22,1.11,1.21,2.67,1.91,4.31,1.91h70.17c1.84,0,3.16-1.79,2.59-3.55"/>
  </g>
  <g>
    <g>
      <path class="cls-3" d="M405.71,248.22c-13.68-7.01-24.53-17.44-32.56-31.28-8.04-13.85-12.05-30.51-12.05-50s4.06-36.15,12.18-50c8.12-13.85,19.06-24.27,32.82-31.28,13.76-7.01,28.85-10.51,45.25-10.51,14.87,0,28.29,2.65,40.25,7.95,11.96,5.3,21.71,12.82,29.23,22.56,7.52,9.74,12.05,21.02,13.59,33.84h-40.51c-1.2-9.4-5.77-16.96-13.72-22.69-7.95-5.73-17.65-8.59-29.1-8.59-9.74,0-18.46,2.27-26.15,6.79-7.69,4.53-13.76,11.2-18.2,20-4.45,8.81-6.67,19.45-6.67,31.92s2.22,23.12,6.67,31.92c4.44,8.81,10.51,15.43,18.2,19.87,7.69,4.45,16.41,6.67,26.15,6.67,11.45,0,21.24-2.86,29.36-8.59,8.12-5.72,12.95-13.2,14.49-22.43h38.72c-1.2,12.65-5.43,23.84-12.69,33.59-7.27,9.74-16.92,17.31-28.97,22.69-12.05,5.38-25.6,8.08-40.64,8.08-16.75,0-31.97-3.5-45.64-10.51"/>
      <polygon class="cls-4" points="718.87 77.2 757.58 77.2 757.58 223.35 838.86 223.35 838.86 256.68 718.87 256.68 718.87 77.2"/>
      <path class="cls-2" d="M1160.39,175.14c-5.56-7.52-12.79-12.99-21.67-16.41,5.81-3.07,10.77-7.77,14.88-14.11,4.09-6.32,6.15-13.41,6.15-21.27,0-14.52-5.3-25.85-15.9-33.98-10.6-8.11-24.27-12.16-41.02-12.16h-71.28v179.47h73.32c19.31,0,34.79-4.75,46.41-14.24,11.62-9.49,17.44-22.59,17.44-39.36,0-11.11-2.79-20.42-8.34-27.95ZM1069.49,107.7h29.74c16.58,0,24.87,6.34,24.87,18.99s-8.03,18.97-24.1,18.97h-30.51v-37.96ZM1101.55,223.34h-32.06v-45.13h32.06c20.5,0,30.76,7.62,30.76,22.82s-10.26,22.31-30.76,22.31Z"/>
      <rect class="cls-1" x="1186.9" y="135.45" width="38.72" height="121.23"/>
      <path class="cls-5" d="M600.52,77.19l-68.2,179.49h40.01l9.26-25.76.2-.51,16.16-45.26,20.78-58.2.03.09,17.81-49.85h-36.05ZM644.1,95.97l-18.18,50.84,13.85,38.33h-27.56l-11.57,32.29h50.67l14.08,39.24h40.01l-61.3-160.71Z"/>
      <path class="cls-10" d="M915.26,77.19l17.81,49.85.03-.09,20.78,58.2,16.16,45.26.2.51,9.26,25.76h40.01l-68.2-179.49h-36.05ZM846.43,256.68h40.01l14.08-39.24h50.67l-11.57-32.29h-27.56l13.85-38.33-18.18-50.84-61.3,160.71Z"/>
    </g>
    <path class="cls-11" d="M1229.23,97.9c0,12.69-10.29,22.98-22.98,22.98s-22.98-10.29-22.98-22.98,10.29-22.98,22.98-22.98,22.98,10.29,22.98,22.98"/>
  </g>
</svg>