<?xml version="1.0" encoding="UTF-8"?>
<svg id="Layer_1" data-name="Layer 1" xmlns="http://www.w3.org/2000/svg" xmlns:xlink="http://www.w3.org/1999/xlink" viewBox="0 0 408 480.79">
  <defs>
    <style>
      .cls-1 {
        fill: url(#linear-gradient-4);
      }

      .cls-2 {
        fill: url(#linear-gradient-3);
      }

      .cls-3 {
        fill: url(#linear-gradient-2);
      }

      .cls-4 {
        fill: url(#linear-gradient);
      }

      .cls-5 {
        fill: #999;
      }
    </style>
    <linearGradient id="linear-gradient" x1="69.64" y1="140.69" x2="382.93" y2="140.69" gradientUnits="userSpaceOnUse">
      <stop offset="0" stop-color="#fff"/>
      <stop offset=".52" stop-color="#fcfcfc"/>
      <stop offset=".79" stop-color="#f4f4f4"/>
      <stop offset="1" stop-color="#e8e8e8"/>
    </linearGradient>
    <linearGradient id="linear-gradient-2" x1="97.77" y1="385.15" x2="405.29" y2="385.15" xlink:href="#linear-gradient"/>
    <linearGradient id="linear-gradient-3" x1="0" y1="254.63" x2="271.26" y2="254.63" xlink:href="#linear-gradient"/>
    <linearGradient id="linear-gradient-4" x1="198.62" y1="130.07" x2="408" y2="130.07" xlink:href="#linear-gradient"/>
  </defs>
  <g>
    <path class="cls-5" d="M360.89,28.01c-.7.02-1.39.05-2.11.12-1.23.1-2.47.22-3.72.38-.55.07-1.08.14-1.63.24h-.05c-.67.12-1.32.22-1.99.36-.67.12-1.37.26-2.04.41-.58.12-1.13.24-1.68.38-.58.12-1.18.26-1.75.43-4.09,1.06-8.31,2.47-12.69,4.25-.65.26-1.32.53-1.99.82-1.01.43-2.02.89-3.03,1.35-.84.38-1.71.79-2.55,1.2-1.71.82-3.44,1.68-5.17,2.62-1.75.91-3.51,1.87-5.26,2.91-.89.5-1.78,1.01-2.67,1.56-.89.53-1.78,1.08-2.67,1.63-.89.55-1.78,1.11-2.69,1.71-.89.58-1.8,1.18-2.71,1.78-2.71,1.83-5.45,3.75-8.22,5.79-.91.67-1.83,1.37-2.74,2.07,0,0-.01,0-.02.01-.78.57-.56,1.79.36,2.06.89.27,1.82.56,2.52.78,1.37.43,2.74.86,4.08,1.32,1.3.43,2.57.86,3.87,1.35,3.05,1.11,6.08,2.28,9.06,3.56.96.41,1.92.82,2.88,1.25.84.36,1.66.72,2.47,1.11.84.41,1.68.79,2.52,1.2,3.2,1.49,6.34,3.12,9.44,4.85,1.06.55,2.07,1.15,3.1,1.73,3.07,1.75,6.13,3.63,9.11,5.57,3.82,2.47,7.52,5.09,11.12,7.83.89.65,1.75,1.32,2.62,2.02,1.01.79,2.02,1.59,3,2.4.84.7,1.71,1.39,2.52,2.11.34.26.67.55.99.82.72.62,1.42,1.25,2.09,1.85.87.74,1.71,1.51,2.52,2.31.07.02.12.07.17.12.89.82,1.75,1.63,2.62,2.47.94.89,1.85,1.78,2.74,2.69.94.94,1.87,1.9,2.79,2.86.62.62,1.23,1.25,1.8,1.9.86.91,1.71,1.85,2.55,2.79,3,3.34,5.89,6.8,8.63,10.38.94,1.2,1.83,2.4,2.71,3.63.34.45.81,1.11,1.27,1.74.57.79,1.8.58,2.08-.35,6.44-21.34,9.2-40.92,8.04-57.32-.26-3.63-.72-7.09-1.35-10.28v-.02c-2.59-13.09-8.19-22.7-16.63-28.5-6.15-4.23-13.69-6.29-22.25-6.29-.67,0-1.37.02-2.07.05"/>
    <path class="cls-5" d="M58.04,187.25c.58.76,1.79.55,2.06-.37.26-.87.54-1.79.72-2.36.17-.55.34-1.08.53-1.63.41-1.37.87-2.71,1.35-4.06.65-1.9,1.32-3.77,2.07-5.65.38-.99.77-1.99,1.18-2.98.38-1.01.79-1.99,1.23-2.98.14-.38.31-.79.5-1.18.43-1.06.89-2.09,1.37-3.12.1-.26.22-.53.36-.79.72-1.61,1.47-3.2,2.26-4.76.82-1.71,1.68-3.39,2.57-5.04.94-1.78,1.92-3.53,2.91-5.29.89-1.54,1.78-3.05,2.71-4.57.84-1.42,1.73-2.81,2.64-4.18,1.13-1.75,2.28-3.51,3.51-5.26.82-1.18,1.66-2.35,2.52-3.51.31-.43.62-.89.96-1.35,1.11-1.47,2.21-2.93,3.36-4.37,2.35-2.98,4.81-5.91,7.35-8.75,1.27-1.44,2.57-2.84,3.89-4.23l.26-.26c.89-.91,1.85-1.87,2.81-2.84l.29-.29c1.03-1.03,2.09-2.11,3.15-3.12,1.92-1.9,3.87-3.8,5.81-5.65,1.95-1.87,3.92-3.72,5.91-5.57,1.97-1.85,3.96-3.68,5.98-5.48.21-.19.42-.39.63-.58.68-.61.41-1.74-.47-1.99-17.48-5.11-33.84-7.74-48.05-7.74-6.34,0-12.23.5-17.59,1.56-13.17,2.62-22.78,8.22-28.59,16.65-12.97,18.84-5.41,51.37,20.28,87,1.13,1.56,2.31,3.14,3.52,4.73"/>
    <path class="cls-5" d="M182.51,426.2c1.57-1.14,3.13-2.3,4.7-3.5.77-.58.54-1.79-.38-2.06-2.98-.88-4.95-1.55-5.91-1.88-1.78-.58-3.53-1.18-5.29-1.83-1.3-.48-2.59-.98-3.87-1.49-1.2-.46-2.4-.94-3.6-1.44-1.35-.55-2.69-1.13-4.04-1.73-1.27-.55-2.55-1.13-3.8-1.73-1.39-.65-2.76-1.32-4.11-1.99-1.25-.62-2.47-1.27-3.7-1.92-1.22-.65-2.45-1.32-3.65-1.99-1.25-.7-2.5-1.42-3.72-2.14-1.08-.65-2.16-1.3-3.24-1.97-1.39-.84-2.76-1.71-4.11-2.59-9.49-6.17-18.5-13.29-26.79-21.1-1.18-1.15-2.33-2.31-3.46-3.44-1.27-1.27-2.48-2.48-3.63-3.65-5.86-5.97-11.49-11.98-16.89-17.96-.62-.68-1.74-.42-2,.46-6.04,20.63-8.64,39.59-7.5,55.43.22,2.88,1.07,9.84,2.45,15.02,1.3,4.73,3.03,8.94,5.21,12.59.26.46.55.91.82,1.35.05.07.1.14.14.19.34.53.7,1.03,1.08,1.54,2.33,3.24,5.09,5.94,8.26,8.12,18.84,12.97,51.37,5.41,87-20.28"/>
  </g>
  <path class="cls-4" d="M118.96,112.94c-1.01.99-2.02,1.99-3.03,2.98l-.26.29c-.91.91-1.85,1.85-2.76,2.79l-.22.22c-1.23,1.3-2.45,2.62-3.65,3.96-.41.48-.84.96-1.25,1.44-1.03,1.18-2.07,2.36-3.05,3.58-.05.02-.07.07-.1.14-1.3,1.54-2.55,3.07-3.75,4.66-1.23,1.59-2.43,3.22-3.6,4.85-1.01,1.42-2.02,2.83-3,4.3-.48.74-.98,1.49-1.47,2.26-.77,1.15-1.49,2.28-2.21,3.46-.91,1.44-1.78,2.91-2.62,4.4-.26.43-.53.87-.77,1.32-.62,1.08-1.23,2.16-1.8,3.27-.14.24-.29.5-.41.77-.6,1.1-1.18,2.21-1.75,3.34-1.42,2.81-2.76,5.65-4.04,8.51-.62,1.49-1.27,2.98-1.87,4.47-.1.24-.19.48-.29.72-.62,1.56-1.25,3.17-1.83,4.76-.62,1.71-1.23,3.41-1.8,5.14-.53,1.56-1.03,3.15-1.51,4.73-.29.94-.55,1.87-.82,2.81-.26.94-.5,1.87-.77,2.81-.15.56-.3,1.13-.45,1.7-.65,2.5.02,5.15,1.75,7.07.57.63,1.14,1.27,1.73,1.9,1.08,1.2,2.21,2.4,3.34,3.6,2.26,2.4,4.56,4.78,6.94,7.14,1.2,1.2,2.4,2.38,3.63,3.56,1.2,1.18,2.45,2.33,3.7,3.51,3.72,3.51,7.59,6.97,11.56,10.38,1.75,1.51,3.56,3,5.36,4.49,2.23,1.85,4.54,3.7,6.87,5.53,1.32,1.06,2.67,2.09,4.04,3.15,2.86,2.19,5.77,4.35,8.72,6.46,1.92,1.39,3.84,2.76,5.81,4.11l1.08.77c10.19,6.99,20.81,13.6,31.52,19.53,2.09,1.15,4.2,2.29,6.29,3.39,1.35.71,2.77-.79,2-2.11-6.75-11.52-10.55-24.83-10.53-38.74,0-7.69,1.11-15.18,3.29-22.34.12-.38.24-.77.38-1.15.29-.99.62-1.95.96-2.88.38-1.15.79-2.31,1.2-3.46,1.27-3.65,2.62-7.26,4.01-10.76,1.83-4.59,3.77-9.15,5.77-13.55l.46-1.01c8.87-19.51,19.89-38.9,32.82-57.64l.75-1.08c1.39-1.99,2.81-3.99,4.23-5.96,14.63-20.35,31.09-39.09,48.05-54.71l8.96-7.98,2.26-1.92h.02c17.4-14.49,34.38-25.16,50.22-31.83,1.85-.77,3.65-1.49,5.45-2.16,10.84-3.96,21.07-6.01,30.44-6.01,1.01,0,2.02.02,3.03.07.05,0,.07.02.1,0,.94.05,1.87.12,2.79.22,1.13.12,2.26.26,3.36.43.89.12,1.75.29,2.62.48.96.19,1.9.41,2.81.67.82.22,1.63.46,2.43.72.29.1.58.19.87.29.17.06.42.15.75.28.9.35,1.63-.8.93-1.46h0c-41.72-39.86-142.69-10.08-235.9,69.83l-.43.36c-1.35,1.15-2.69,2.33-4.04,3.51-7.93,6.92-15.71,14.15-23.11,21.46l-.19.19Z"/>
  <path class="cls-3" d="M401.37,289.51h-92.29c-3.3,0-6.3,1.93-7.66,4.94,0,.02-.02.04-.02.05l-.5,1.13c-2.31,5.09-4.81,10.23-7.47,15.35l.22-.03-5.33,9.64c-6.13,11.05-12.9,21.98-20.18,32.58-1.15,1.68-2.33,3.34-3.51,5-2.38,3.36-4.83,6.68-7.28,9.92-1.2,1.56-2.4,3.1-3.6,4.64-2.69,3.44-5.43,6.8-8.19,10.12-1.25,1.49-2.5,2.95-3.75,4.4-1.35,1.56-2.69,3.12-4.09,4.64-.94,1.06-1.87,2.09-2.83,3.12-.77.86-1.54,1.71-2.33,2.52-1.13,1.22-2.28,2.45-3.44,3.63-2.16,2.28-4.35,4.52-6.58,6.68-2.47,2.43-4.95,4.81-7.42,7.09l-8.96,7.98c-.77.65-1.51,1.27-2.28,1.9-4.78,3.99-9.56,7.71-14.3,11.12-2.47,1.78-4.95,3.48-7.4,5.12-3.27,2.16-6.51,4.18-9.71,6.05-2.4,1.42-4.78,2.74-7.14,3.96h-.02c-1.56.84-3.15,1.61-4.68,2.38-1.56.74-3.1,1.47-4.64,2.14-1.54.67-3.05,1.32-4.57,1.92-1.51.6-3,1.18-4.49,1.71-10.43,3.7-20.25,5.57-29.26,5.57-1.01,0-2.02-.02-3.03-.07h-.1c-.89-.05-1.75-.12-2.64-.19-1.18-.12-2.33-.26-3.46-.46-.89-.12-1.78-.29-2.64-.48-.79-.17-1.61-.34-2.38-.55-.24-.05-.5-.12-.74-.19-.49-.13-1.86-.48-3.69-1.14-.9-.33-1.61.81-.92,1.47,1.68,1.6,3.21,2.82,4.39,3.74,11.71,9.1,27.29,13.88,45.53,13.88,47.31,0,98.97-18.62,145.41-52.45,45.8-33.34,84.11-79.17,111.49-133.13,1.32-2.61-.56-5.69-3.49-5.69"/>
  <path class="cls-2" d="M87.78,334.42c1.15,1.35,2.33,2.69,3.51,4.04,6.61,7.54,13.74,15.26,21.24,22.87,1.13,1.18,2.28,2.33,3.41,3.46,1.2,1.2,2.31,2.28,3.39,3.36,7.69,7.26,16.15,13.91,25.04,19.7,4.33,2.84,8.75,5.45,13.26,7.86,1.13.6,2.26,1.2,3.41,1.78,1.13.58,2.28,1.13,3.44,1.68,2.38,1.15,4.78,2.23,7.21,3.27.77.34,1.56.65,2.33.96,1.51.62,3.03,1.23,4.54,1.78,1.2.46,2.4.89,3.6,1.3,1.2.43,2.4.84,3.63,1.23,4.2,1.37,8.45,2.58,12.78,3.63,1.26.3,2.58-.02,3.55-.88,1.67-1.49,4.21-3.76,4.92-4.41,1.08-.99,2.14-1.99,3.22-3.03,1.03-.96,2.04-1.97,3.08-2.96.07-.07.12-.12.19-.19,1.51-1.49,3.05-3.03,4.56-4.57.05-.07.12-.14.19-.22,1.18-1.18,2.33-2.38,3.48-3.6.12-.1.22-.22.31-.31,1.23-1.32,2.47-2.64,3.7-3.99,1.27-1.37,2.55-2.79,3.8-4.2,1.13-1.25,2.23-2.52,3.36-3.82,1.39-1.61,2.76-3.22,4.11-4.85,1.15-1.37,2.31-2.76,3.44-4.18,1.3-1.61,2.62-3.24,3.87-4.88.89-1.11,1.75-2.21,2.59-3.34,1.2-1.54,2.38-3.1,3.53-4.69.7-.94,1.39-1.87,2.07-2.81.77-1.06,1.54-2.14,2.31-3.22,1.15-1.61,2.28-3.22,3.39-4.83.89-1.27,1.75-2.57,2.62-3.87.67-.98,1.32-1.97,1.97-2.96,1.06-1.61,2.11-3.22,3.15-4.85,1.08-1.68,2.14-3.39,3.17-5.09l1.85-2.99c.74-1.19-.07-2.75-1.47-2.81-1.33-.06-2.68-.15-4.03-.26-1.49-.1-4.54-.41-4.54-.41-1.73-.17-3.46-.36-5.19-.6-11.89-1.61-24.6-4.56-37.82-8.82-1.25-.41-2.52-.82-3.8-1.27-.02,0-.07-.02-.1-.05-2.11-.72-4.25-1.47-6.39-2.23-2.33-.84-4.64-1.73-6.97-2.64-1.1-.43-2.23-.89-3.36-1.35-2.23-.91-4.49-1.85-6.73-2.81-2.62-1.13-5.26-2.31-7.88-3.53-1.59-.74-3.15-1.49-4.71-2.23-1.44-.7-2.88-1.42-4.32-2.14-4.54-2.26-9.03-4.64-13.55-7.14-11.05-6.13-22.01-12.93-32.58-20.18l-1.08-.77c-1.99-1.37-3.99-2.79-5.96-4.2-2.55-1.83-5.07-3.68-7.54-5.57-1.15-.87-2.28-1.75-3.44-2.62-1.32-1.03-2.64-2.04-3.94-3.1-1.42-1.1-2.81-2.23-4.18-3.36-.75-.6-1.47-1.2-2.19-1.8-1.47-1.22-2.93-2.45-4.37-3.7-1.06-.89-2.11-1.8-3.15-2.74-.65-.55-1.3-1.11-1.92-1.68-2.04-1.8-4.04-3.6-5.98-5.45-4.64-4.28-9.11-8.65-13.33-13.07-.84-.86-1.68-1.75-2.5-2.62-.74-.77-1.47-1.56-2.16-2.33l-.07.34-5.26-6.22c-.89-1.03-1.78-2.04-2.64-3.07-.22-.24-.41-.5-.62-.74l-1.3-1.51v-.05c-3.96-4.78-7.71-9.59-11.1-14.3-1.78-2.48-3.48-4.95-5.12-7.4-2.16-3.27-4.18-6.49-6.06-9.71-1.42-2.4-2.74-4.78-3.96-7.14-1.66-3.15-3.17-6.25-4.52-9.32-.67-1.54-1.32-3.05-1.92-4.57-.6-1.51-1.18-3-1.71-4.49-.53-1.49-1.03-2.98-1.47-4.45-.46-1.44-.87-2.88-1.25-4.33-1.9-7.21-2.86-14.05-2.86-20.49,0-1.03.02-2.04.07-3.05.05-1.01.12-2.02.22-3,.1-.94.22-1.85.36-2.74,0-.12.02-.24.05-.34.1-.72.22-1.42.38-2.11.05-.36.12-.72.19-1.08.17-.77.36-1.51.58-2.28,0-.02,0-.07.02-.1.22-.89.48-1.75.77-2.62t.02-.05c.09-.29.22-.71.43-1.28.32-.91-.82-1.61-1.48-.9-.34.36-.59.65-.77.84-24.51,26.83-22.08,78.44,6.73,138.84,14.27,30.01,34.72,61.22,59.27,90.75l5,5.89Z"/>
  <path class="cls-1" d="M407.81,186.12c-4.15-12.81-9.77-25.11-16.79-36.7-1.03-1.73-2.09-3.36-3.17-5-13.46-20.73-30.78-38.06-51.49-51.56-6.97-4.54-14.17-8.55-21.62-12.01-1.03-.48-2.09-.99-3.17-1.44-1.2-.55-2.45-1.08-3.68-1.59-1.23-.5-2.48-1.01-3.72-1.49-1.2-.48-2.43-.94-3.65-1.37-.1-.05-.17-.09-.26-.09-1.2-.46-2.4-.87-3.63-1.27-1.03-.36-2.07-.7-3.12-1.01-1.06-.36-2.14-.7-3.22-1.01-.77-.22-1.56-.46-2.36-.67-1.08-.31-2.16-.6-3.24-.86-1.15-.31-2.33-.6-3.51-.87-.36-.1-.7-.17-1.06-.24-.46.38-.91.79-1.37,1.2-2.4,2.11-4.83,4.32-7.21,6.58-1.2,1.13-2.4,2.26-3.58,3.44-1.03.99-2.07,2.02-3.1,3.03-2.57,2.55-5.12,5.19-7.64,7.9-1.13,1.2-2.26,2.43-3.39,3.68-1.15,1.27-2.31,2.57-3.46,3.87-.84.94-1.68,1.92-2.52,2.88-4.85,5.62-9.61,11.46-14.18,17.47-1.08,1.39-2.16,2.81-3.22,4.25-1.06,1.44-2.11,2.86-3.15,4.3-1.37,1.92-2.74,3.84-4.08,5.81l-.74,1.06c-1.39,2.04-2.79,4.08-4.13,6.13-.65.99-1.3,1.97-1.92,2.96-1.15,1.75-2.28,3.53-3.39,5.31-1.37,2.19-2.71,4.4-4.04,6.61-1.35,2.23-2.64,4.49-3.92,6.73-2.2,3.86-4.31,7.71-6.33,11.59-.47.91.55,1.85,1.42,1.31,11.96-7.4,25.74-11.35,40.14-11.35h.12c21.7,0,41.91,8.96,56.4,24.79,1.6,1.74,3.85,2.74,6.21,2.74h101.05c2.65,0,4.54-2.58,3.73-5.11"/>
</svg>